<svg id="Layer_1" data-name="Layer 1" xmlns="http://www.w3.org/2000/svg" viewBox="0 0 64.72 58.72"><defs><style>.cls-1{fill:#fff;}</style></defs><title>logo</title><path class="cls-1" d="M5.28,33.83l.22-.34,13-20.35a.44.44,0,0,1,.78.06c2.17,4.87,4.05,10.93,3.17,14.7a23,23,0,0,1-2.56,5.59c-.15.28-.31.56-.49.83a.44.44,0,0,1-.37.19H5.67A.45.45,0,0,1,5.28,33.83Z"/><path class="cls-1" d="M63.26,37.61v3.22a.45.45,0,0,1-.28.42c-1,.43-4.45,2-5.88,4-3.66,5.09-6.46,12.37-12.7,12.37H18.34A16.74,16.74,0,0,1,1.62,40.85v-.3a.44.44,0,0,1,.44-.44H16.59a.49.49,0,0,1,.47.55,5.06,5.06,0,0,0,.52,2.79,5.12,5.12,0,0,0,4.59,2.84h7.19V40.68H22.25a.46.46,0,0,1-.37-.72c.07-.12.16-.24.25-.38.68-1,1.64-2.44,2.59-4.13a31.52,31.52,0,0,0,1.8-3.58c.1-.22.18-.45.26-.67.14-.39.29-.76.39-1.12s.18-.63.27-.94a14.45,14.45,0,0,0,.34-3.27c0-.45,0-.92-.06-1.36A14.64,14.64,0,0,0,27.57,23a12,12,0,0,0-.2-1.3,19.52,19.52,0,0,0-.41-2l-.05-.24c-.13-.45-.23-.88-.37-1.32-.41-1.4-.88-2.77-1.37-4-.18-.51-.38-1-.59-1.48-.3-.74-.61-1.41-.89-2-.15-.29-.27-.55-.39-.82s-.29-.6-.43-.89-.22-.43-.3-.63l-.88-1.63A.28.28,0,0,1,22,6.27l5.5,1.49h0l.73.2.79.23.3.08V5a2.84,2.84,0,0,1,2.82-2.86,2.79,2.79,0,0,1,2,.84A2.86,2.86,0,0,1,35,5V9.85l.58.17a.27.27,0,0,1,.14.07l.61.46c.2.16.42.36.69.57.53.42,1.16,1,1.86,1.61l.53.48c.89.84,1.89,1.81,2.85,2.89.26.3.53.61.79.94s.55.65.8,1,.67.88,1,1.35c.15.22.31.44.45.67.39.59.74,1.2,1.07,1.81.13.28.28.59.4.89a13.19,13.19,0,0,1,.84,2.48,3.89,3.89,0,0,1,.12.55v0a4.62,4.62,0,0,1,.1.77,8.49,8.49,0,0,1-.14,2.56,8.76,8.76,0,0,1-.31,1.08c-.12.35-.24.71-.4,1.06a15,15,0,0,1-1.11,2.09c-.14.25-.3.51-.47.76l-.52.75c-.23.31-.47.63-.72.92s-.45.6-.69.87-.68.79-1,1.16-.43.49-.65.71-.45.47-.65.67c-.35.35-.64.61-.88.83l-.56.52a.43.43,0,0,1-.31.12H35v5.61h5.5a5.14,5.14,0,0,0,3.35-1.24,37.77,37.77,0,0,0,3.41-3.35.45.45,0,0,1,.21-.12l15.21-4.4A.45.45,0,0,1,63.26,37.61Z"/></svg>